Coordinates
version=1
nRows=13
nColumns=34
inDegrees=yes

Units are S.I. units (second, meters, Newtons, ...)
If the header above contains a line with 'inDegrees', this indicates whether rotational values are in degrees (yes) or radians (no).

endheader
time	pelvis_tilt	pelvis_list	pelvis_rotation	pelvis_tx	pelvis_ty	pelvis_tz	hip_flexion_r	hip_adduction_r	hip_rotation_r	knee_angle_r	ankle_angle_r	subtalar_angle_r	mtp_angle_r	hip_flexion_l	hip_adduction_l	hip_rotation_l	knee_angle_l	ankle_angle_l	subtalar_angle_l	mtp_angle_l	lumbar_extension	lumbar_bending	lumbar_rotation	arm_flex_r	arm_add_r	arm_rot_r	elbow_flex_r	pro_sup_r	arm_flex_l	arm_add_l	arm_rot_l	elbow_flex_l	pro_sup_l
      3.00000000	     -2.37525671	      0.58418431	     -5.68539750	      1.64877023	      0.87462577	     -0.03342222	      0.80260430	     -5.31544065	      0.05604711	      1.28499948	      3.55710366	    -17.24842102	      0.00000000	     -0.14682149	     -2.76105565	      1.92229597	      2.44025943	      3.13537853	    -11.34747204	      0.00000000	     -7.53612329	      1.67081655	     -0.97777384	     11.97030011	     -9.43935648	     38.45939038	     86.09416082	     90.32112409	     11.57752110	     -6.97834598	     31.20303987	     76.35696410	     87.67021182
      3.01666670	     -2.75810569	      0.63962711	     -5.79163295	      1.64822830	      0.87414632	     -0.03418189	      1.71380478	     -5.35081994	      0.01246569	      2.09947719	      4.03709805	    -17.13503422	      0.00000000	      0.66522838	     -2.74550734	      1.82833662	      3.16082068	      3.42645969	    -11.62102331	      0.00000000	     -7.43902393	      1.70185008	     -1.07207539	     12.32950603	     -9.37619455	     38.22024090	     86.63817081	     90.28085037	     12.01160907	     -7.00570862	     31.88205134	     77.34424161	     87.50547242
      3.03333330	     -2.81785992	      0.64046544	     -5.90586308	      1.64768838	      0.87450458	     -0.03514813	      2.23581026	     -5.38486145	     -0.08141825	      2.79885842	      4.01197477	    -17.08218215	      0.00000000	      1.04835484	     -2.74310753	      1.65764646	      3.68338370	      3.43844891	    -11.71818588	      0.00000000	     -7.82333955	      1.79969724	     -1.28976924	     12.97161219	     -9.17001234	     37.93127425	     86.85142046	     90.26550101	     12.54522511	     -6.62101505	     31.97243880	     77.59679680	     87.46108176
      3.05000000	     -2.86490400	      0.65788822	     -6.01811260	      1.64741133	      0.87489138	     -0.03583066	      2.96043546	     -5.46562224	     -0.21318893	      3.91649425	      4.19787919	    -17.08777432	      0.00000000	      1.56757719	     -2.71476180	      1.44124566	      4.48346954	      3.63924217	    -11.94193209	      0.00000000	     -8.21741070	      1.90387108	     -1.53100023	     13.50975935	     -8.90156763	     37.64406883	     87.20992407	     90.25711629	     13.15611549	     -6.26813345	     32.05266465	     78.05557285	     87.41111592
      3.06666670	     -3.46424475	      0.78206391	     -6.14290711	      1.64782716	      0.87317789	     -0.03586751	      4.51536693	     -5.63362819	     -0.50504725	      5.49817914	      5.11525895	    -16.61673392	      0.00000000	      2.90719771	     -2.65295729	      1.28633395	      5.75731335	      4.10358017	    -12.29342710	      0.00000000	     -7.96224434	      1.94772391	     -1.59172615	     13.39743719	     -8.76968046	     37.09766528	     88.55346172	     90.30326026	     13.36594587	     -6.27393436	     32.29840361	     79.71115297	     87.18019954
      3.08333330	     -3.52721517	      0.85149617	     -6.25243825	      1.64799656	      0.87019464	     -0.03537882	      5.47761557	     -5.80585531	     -0.76392679	      7.05714335	      5.67662997	    -16.47699914	      0.00000000	      3.68065778	     -2.61285200	      0.97343593	      7.05589324	      4.46617304	    -12.66151107	      0.00000000	     -8.30846467	      2.01825737	     -1.77868228	     13.75309668	     -8.56841187	     36.72566996	     89.24235744	     90.34986329	     13.99685525	     -6.03109414	     32.16882648	     80.40485233	     87.02774475
      3.10000000	     -3.98294241	      0.96364312	     -6.39555226	      1.64829583	      0.86650913	     -0.03437972	      7.04902068	     -6.01569675	     -1.31197995	      8.99017882	      6.57666670	    -15.92098495	      0.00000000	      5.05599154	     -2.63286712	      0.51305275	      8.75873683	      4.88411328	    -12.98435091	      0.00000000	     -8.30789180	      2.11116532	     -1.82679193	     13.79423860	     -8.27690689	     36.45126763	     90.58647965	     90.48328863	     14.25220714	     -5.66805826	     32.05349347	     81.75131746	     86.76314716
      3.11666670	     -4.27921668	      1.04760006	     -6.54679135	      1.64841837	      0.86399670	     -0.03334066	      8.56963243	     -6.22455191	     -1.78842899	     11.21013313	      7.68347538	    -15.38734073	      0.00000000	      6.46710410	     -2.74268389	     -0.01824162	     10.91090604	      5.50576632	    -13.23412413	      0.00000000	     -8.44282135	      2.14739866	     -1.94269394	     14.03989551	     -8.06272273	     36.28337128	     91.69623184	     90.63761163	     14.59995864	     -5.25586736	     31.87291580	     82.92248075	     86.50653441
      3.13333330	     -4.64721618	      1.14279478	     -6.66043807	      1.64836336	      0.86316811	     -0.03254737	     10.29751953	     -6.46665409	     -2.42495908	     13.68587128	      8.94039647	    -14.53689073	      0.00000000	      8.17159802	     -2.93459839	     -0.73736583	     13.45978246	      6.20144016	    -13.15464955	      0.00000000	     -8.53701726	      2.21979515	     -2.08559412	     14.46947316	     -7.92707068	     36.07717359	     92.77355070	     90.82001127	     15.03111209	     -4.87959923	     31.59948774	     84.30159591	     86.22067594
      3.15000000	     -4.89926899	      1.22965080	     -6.74275335	      1.64872349	      0.86243091	     -0.03196099	     11.95016287	     -6.75739769	     -2.99004037	     16.32194686	     10.38154715	    -13.68325083	      0.00000000	      9.91984429	     -3.17739573	     -1.51594761	     16.37635947	      7.16595890	    -12.88440538	      0.00000000	     -8.74520885	      2.31294258	     -2.21325256	     14.99124778	     -7.79302577	     35.81763850	     93.78729640	     90.98374126	     15.39562763	     -4.45657146	     31.31635648	     85.81253759	     85.97904051
      3.16666670	     -5.07741596	      1.27107131	     -6.76373319	      1.64920871	      0.86054899	     -0.03173515	     13.59641160	     -7.07225500	     -3.55655976	     19.15297680	     11.86690741	    -12.64746309	      0.00000000	     11.71917112	     -3.51390620	     -2.37311271	     19.55759599	      8.29252002	    -12.29337161	      0.00000000	     -9.07484698	      2.41341882	     -2.40711790	     15.49975314	     -7.65435977	     35.42744914	     94.91291928	     91.15670483	     15.72873252	     -4.00483795	     30.89811217	     87.53431569	     85.75706738
      3.18333330	     -5.09569699	      1.28124065	     -6.75923708	      1.65002040	      0.85571156	     -0.03199345	     15.12680825	     -7.42685977	     -4.00490152	     22.13058061	     13.44234244	    -11.78158231	      0.00000000	     13.45978630	     -3.88853278	     -3.24434661	     23.02101344	      9.69899865	    -11.72585379	      0.00000000	     -9.59128934	      2.55320461	     -2.61611217	     15.90629288	     -7.39092196	     34.97405667	     96.31621170	     91.33148847	     16.07531246	     -3.52897407	     30.44216584	     89.47893292	     85.59726135
      3.20000000	     -5.05431843	      1.27664257	     -6.71290722	      1.65160948	      0.84787713	     -0.03216905	     16.70730009	     -7.85187294	     -4.38496106	     25.39094848	     15.13455765	    -10.95071800	      0.00000000	     15.26482323	     -4.32920756	     -4.18733284	     26.81377820	     11.39537985	    -11.10836120	      0.00000000	    -10.15977233	      2.76000083	     -2.87640015	     16.18332389	     -6.97521500	     34.41675134	     98.26792105	     91.52379864	     16.64543681	     -3.11108401	     29.91576804	     91.93876334	     85.49670471
